{"title":"Parental.Guidance.2012.BRRip.XviD.AC3-KoDeKinG","uid":8310950,"size":1733861156,"categoryP":"video","categoryS":"movies","magnet":"?xt=urn:btih:8c7c4db73aa49cf638b04993bb0f61d2c269b5ad&amp;dn=Parental.Guidance.2012.BRRip.XviD.AC3-KoDeKinG&amp;tr=udp%3A%2F%2Ftracker.openbittorrent.com%3A80&amp;tr=udp%3A%2F%2Fopen.demonii.com%3A1337&amp;tr=udp%3A%2F%2Ftracker.coppersurfer.tk%3A6969&amp;tr=udp%3A%2F%2Fexodus.desync.com%3A6969","seeders":1,"leechers":0,"uploader":"sceneline","files":5,"time":1364477483,"description":"-\n &lt;a href=&quot;\nhttp://www.Speed.&quot; rel=&quot;nofollow&quot; target=&quot;_NEW&quot;&gt;\nhttp://www.Speed.&lt;/a&gt; Cd       the fast  and The Hottest Private Tracker on the net &lt;a href=&quot;\nhttp://www.Speed.&quot; rel=&quot;nofollow&quot; target=&quot;_NEW&quot;&gt;\nhttp://www.Speed.&lt;/a&gt; Cd\n\nPlease Seed back to make the speed Faster!!\n ............ NFO .............\n-\n &lt;a href=&quot;\nhttp://www.Speed.&quot; rel=&quot;nofollow&quot; target=&quot;_NEW&quot;&gt;\nhttp://www.Speed.&lt;/a&gt; Cd[img]http://i.imgbox.com/abuKfRlT.jpg[/img]\n\nGeneral Info\nENCODER     : Kobe\nSource Vieeo: 1080p AMIABLE\nSource Audio: 1080p AMIABLE\nChannel     : 6 channels \nIMDB        : http://www.imdb.com/title/tt1047540/\nsubs        : none\nNEWS        : We got some High quality Mixtapes comin at yo door\n\n\nVideo\nID                                       : 0\nFormat                                   : MPEG-4 Visual\nFormat profile                           : Advanced Simple@L5\nFormat settings, BVOP                    : 2\nFormat settings, QPel                    : No\nFormat settings, GMC                     : No warppoints\nFormat settings, Matrix                  : Default (H.263)\nCodec ID                                 : XVID\nCodec ID/Hint                            : XviD\nDuration                                 : 1h 44mn\nBit rate                                 : 1 800 Kbps\nWidth                                    : 720 pixels\nHeight                                   : 384 pixels\nDisplay aspect ratio                     : 1.85:1\nFrame rate                               : 23.976 fps\nColor space                              : YUV\nChroma subsampling                       : 4:2:0\nBit depth                                : 8 bits\nScan type                                : Progressive\nCompression mode                         : Lossy\nBits/(Pixel*Frame)                       : 0.271\nStream size                              : 1.32 GiB (82%)\nWriting library                          : XviD 1.2.1 (UTC 2008-12-04)\n\n\n\n\nAudio\nID                                       : 1\nFormat                                   : AC-3\nFormat/Info                              : Audio Coding 3\nMode extension                           : CM (complete main)\nFormat settings, Endianness              : Big\nCodec ID                                 : 2000\nDuration                                 : 1h 44mn\nBit rate mode                            : Constant\nBit rate                                 : 384 Kbps\nChannel(s)                               : 6 channels\nChannel positions                        : Front: L C R, Side: L R, LFE\nSampling rate                            : 48.0 KHz\nBit depth                                : 16 bits\nCompression mode                         : Lossy\nStream size                              : 287 MiB (18%)\nAlignment                                : Aligned on interleaves\nInterleave, duration                     : 64 ms (1.53 video frames)\nInterleave, preload duration             : 192 ms\nTitle                                    : Parental.track_2\n\n\n[img]http://i.imgbox.com/adnqhiiV.png[/img]\n[img]http://i.imgbox.com/adpByT7Z.png[/img]\n[img]http://i.imgbox.com/adquGe2D.png[/img]","torrent":{"xt":"urn:btih:8c7c4db73aa49cf638b04993bb0f61d2c269b5ad","amp;dn":"Parental.Guidance.2012.BRRip.XviD.AC3-KoDeKinG","amp;tr":["udp%3A%2F%2Ftracker.openbittorrent.com%3A80","udp%3A%2F%2Fopen.demonii.com%3A1337","udp%3A%2F%2Ftracker.coppersurfer.tk%3A6969","udp%3A%2F%2Fexodus.desync.com%3A6969"],"infoHash":"8c7c4db73aa49cf638b04993bb0f61d2c269b5ad","infoHashBuffer":{"type":"Buffer","data":[140,124,77,183,58,164,156,246,56,176,73,147,187,15,97,210,194,105,181,173]},"announce":[],"urlList":[]}}